# xmcd
#
# Track frame offsets:
#	150
#	12404
#	25109
#	41299
#	53296
#	71469
#	84511
#	105312
#	117593
#
# Disc length: 1708 seconds
#
# Revision: 1
# Processed by: cddbd v1.5.2PL0 Copyright (c) Steve Scherf et al.
# Submitted via: audiograbber 1.83.01
#
DISCID=6006aa09
DTITLE=Texas Country Artist - Texas Country Artist 007
DYEAR=2006
DGENRE=Country
TTITLE0=Barley Pop  - Rob Austin
TTITLE1=Ready For Love  - Liz Talley
TTITLE2=Let´s Make A Memory One More Time  - Rick Stancil
TTITLE3=It´s A Crazy World  - Luann
TTITLE4=Forgive The Man  - Rob Austin
TTITLE5=Nothing To Write Home To Mamma About  - David Tyler
TTITLE6=Name On The Wall  - Doug Spartz With Todd Fritsch
TTITLE7=Lousiana Christmas  - Kim Carson
TTITLE8=Here On Christmas Eve  - Rick Stancil and Luann
EXTD=
EXTT0=
EXTT1=
EXTT2=
EXTT3=
EXTT4=
EXTT5=
EXTT6=
EXTT7=
EXTT8=
PLAYORDER=
